HIERARCHY
ROOT Root
{
  OFFSET 0.0 0.0 0.0
  CHANNELS 6 Xposition Yposition Zposition Zrotation Yrotation Xrotation
  JOINT Hips
  {
    OFFSET 0.0 100.0 0.0
    CHANNELS 6 Xposition Yposition Zposition Zrotation Yrotation Xrotation
    JOINT Spine1
    {
      OFFSET 5.003913 -0.037094 -0.013727
      CHANNELS 3 Zrotation Yrotation Xrotation
      JOINT Spine2
      {
        OFFSET 7.125363 -1e-06 0.0
        CHANNELS 3 Zrotation Yrotation Xrotation
        JOINT Chest
        {
          OFFSET 7.594027 1e-06 0.0
          CHANNELS 3 Zrotation Yrotation Xrotation
          JOINT Neck1
          {
            OFFSET 26.313086 -0.460272 -0.181672
            CHANNELS 3 Zrotation Yrotation Xrotation
            JOINT Neck2
            {
              OFFSET 8.045911 0.0 0.0
              CHANNELS 3 Zrotation Yrotation Xrotation
              JOINT Head
              {
                OFFSET 6.432774 0.0 0.0
                CHANNELS 3 Zrotation Yrotation Xrotation
                JOINT HeadEnd
                {
                  OFFSET 16.169773 0.06451 0.00362
                  CHANNELS 3 Zrotation Yrotation Xrotation
                }
                JOINT Jaw
                {
                  OFFSET 0.108741 3.12938 0.002639
                  CHANNELS 3 Zrotation Yrotation Xrotation
                }
                JOINT LeftEye
                {
                  OFFSET 4.45173 8.166359 3.206392
                  CHANNELS 3 Zrotation Yrotation Xrotation
                }
                JOINT RightEye
                {
                  OFFSET 4.436895 8.135758 -3.222429
                  CHANNELS 3 Zrotation Yrotation Xrotation
                }
              }
            }
          }
          JOINT LeftShoulder
          {
            OFFSET 23.218927 5.195579 1.621656
            CHANNELS 3 Zrotation Yrotation Xrotation
            JOINT LeftArm
            {
              OFFSET 15.902118 2e-06 -2e-06
              CHANNELS 3 Zrotation Yrotation Xrotation
              JOINT LeftForeArm
              {
                OFFSET 28.739307 0.0 -1e-06
                CHANNELS 3 Zrotation Yrotation Xrotation
                JOINT LeftHand
                {
                  OFFSET 27.093981 -4e-06 0.0
                  CHANNELS 3 Zrotation Yrotation Xrotation
                  JOINT LeftHandThumb1
                  {
                    OFFSET 2.276781 3.380274 0.83384
                    CHANNELS 3 Zrotation Yrotation Xrotation
                    JOINT LeftHandThumb2
                    {
                      OFFSET 4.705309 -1e-06 -1e-06
                      CHANNELS 3 Zrotation Yrotation Xrotation
                      JOINT LeftHandThumb3
                      {
                        OFFSET 2.798515 0.0 3e-06
                        CHANNELS 3 Zrotation Yrotation Xrotation
                        JOINT LeftHandThumbEnd
                        {
                          OFFSET 3.180793 4e-06 -4e-06
                          CHANNELS 3 Zrotation Yrotation Xrotation
                        }
                      }
                    }
                  }
                  JOINT LeftHandIndex1
                  {
                    OFFSET 3.247786 2.352677 0.137192
                    CHANNELS 3 Zrotation Yrotation Xrotation
                    JOINT LeftHandIndex2
                    {
                      OFFSET 6.367095 1e-06 0.0
                      CHANNELS 3 Zrotation Yrotation Xrotation
                      JOINT LeftHandIndex3
                      {
                        OFFSET 3.662364 0.0 0.0
                        CHANNELS 3 Zrotation Yrotation Xrotation
                        JOINT LeftHandIndex4
                        {
                          OFFSET 2.329242 4e-06 -4e-06
                          CHANNELS 3 Zrotation Yrotation Xrotation
                          JOINT LeftHandIndexEnd
                          {
                            OFFSET 2.767823 1e-06 0.0
                            CHANNELS 3 Zrotation Yrotation Xrotation
                          }
                        }
                      }
                    }
                  }
                  JOINT LeftHandMiddle1
                  {
                    OFFSET 3.163612 0.945023 -0.406112
                    CHANNELS 3 Zrotation Yrotation Xrotation
                    JOINT LeftHandMiddle2
                    {
                      OFFSET 6.276789 3e-06 0.0
                      CHANNELS 3 Zrotation Yrotation Xrotation
                      JOINT LeftHandMiddle3
                      {
                        OFFSET 4.35652 -1e-06 4e-06
                        CHANNELS 3 Zrotation Yrotation Xrotation
                        JOINT LeftHandMiddle4
                        {
                          OFFSET 2.996877 0.0 8e-06
                          CHANNELS 3 Zrotation Yrotation Xrotation
                          JOINT LeftHandMiddleEnd
                          {
                            OFFSET 2.323256 3e-06 -4e-06
                            CHANNELS 3 Zrotation Yrotation Xrotation
                          }
                        }
                      }
                    }
                  }
                  JOINT LeftHandRing1
                  {
                    OFFSET 2.882606 -0.309162 0.107445
                    CHANNELS 3 Zrotation Yrotation Xrotation
                    JOINT LeftHandRing2
                    {
                      OFFSET 6.033198 0.0 4e-06
                      CHANNELS 3 Zrotation Yrotation Xrotation
                      JOINT LeftHandRing3
                      {
                        OFFSET 4.350578 3e-06 0.0
                        CHANNELS 3 Zrotation Yrotation Xrotation
                        JOINT LeftHandRing4
                        {
                          OFFSET 2.651321 2e-06 -7e-06
                          CHANNELS 3 Zrotation Yrotation Xrotation
                          JOINT LeftHandRingEnd
                          {
                            OFFSET 1.937663 1e-06 -4e-06
                            CHANNELS 3 Zrotation Yrotation Xrotation
                          }
                        }
                      }
                    }
                  }
                  JOINT LeftHandPinky1
                  {
                    OFFSET 2.865315 -1.525436 0.575687
                    CHANNELS 3 Zrotation Yrotation Xrotation
                    JOINT LeftHandPinky2
                    {
                      OFFSET 5.54936 1e-06 -8e-06
                      CHANNELS 3 Zrotation Yrotation Xrotation
                      JOINT LeftHandPinky3
                      {
                        OFFSET 3.070974 0.0 -4e-06
                        CHANNELS 3 Zrotation Yrotation Xrotation
                        JOINT LeftHandPinky4
                        {
                          OFFSET 1.549672 1e-06 0.0
                          CHANNELS 3 Zrotation Yrotation Xrotation
                          JOINT LeftHandPinkyEnd
                          {
                            OFFSET 1.952123 0.0 0.0
                            CHANNELS 3 Zrotation Yrotation Xrotation
                          }
                        }
                      }
                    }
                  }
                }
              }
            }
          }
          JOINT RightShoulder
          {
            OFFSET 23.161716 5.296122 -1.380114
            CHANNELS 3 Zrotation Yrotation Xrotation
            JOINT RightArm
            {
              OFFSET -16.027195 -2e-06 1.1e-05
              CHANNELS 3 Zrotation Yrotation Xrotation
              JOINT RightForeArm
              {
                OFFSET -28.736639 4e-06 2e-06
                CHANNELS 3 Zrotation Yrotation Xrotation
                JOINT RightHand
                {
                  OFFSET -27.133619 6e-06 0.0
                  CHANNELS 3 Zrotation Yrotation Xrotation
                  JOINT RightHandThumb1
                  {
                    OFFSET -2.274328 -3.351035 -0.83067
                    CHANNELS 3 Zrotation Yrotation Xrotation
                    JOINT RightHandThumb2
                    {
                      OFFSET -4.703594 -3e-06 2e-06
                      CHANNELS 3 Zrotation Yrotation Xrotation
                      JOINT RightHandThumb3
                      {
                        OFFSET -2.794935 -4e-06 -3e-06
                        CHANNELS 3 Zrotation Yrotation Xrotation
                        JOINT RightHandThumbEnd
                        {
                          OFFSET -3.183852 4e-06 1e-06
                          CHANNELS 3 Zrotation Yrotation Xrotation
                        }
                      }
                    }
                  }
                  JOINT RightHandIndex1
                  {
                    OFFSET -3.253496 -2.33755 -0.127667
                    CHANNELS 3 Zrotation Yrotation Xrotation
                    JOINT RightHandIndex2
                    {
                      OFFSET -6.344434 0.0 0.0
                      CHANNELS 3 Zrotation Yrotation Xrotation
                      JOINT RightHandIndex3
                      {
                        OFFSET -3.654871 0.0 -8e-06
                        CHANNELS 3 Zrotation Yrotation Xrotation
                        JOINT RightHandIndex4
                        {
                          OFFSET -2.327586 -1e-06 0.0
                          CHANNELS 3 Zrotation Yrotation Xrotation
                          JOINT RightHandIndexEnd
                          {
                            OFFSET -2.770001 3e-06 8e-06
                            CHANNELS 3 Zrotation Yrotation Xrotation
                          }
                        }
                      }
                    }
                  }
                  JOINT RightHandMiddle1
                  {
                    OFFSET -3.168223 -0.944764 0.411762
                    CHANNELS 3 Zrotation Yrotation Xrotation
                    JOINT RightHandMiddle2
                    {
                      OFFSET -6.266691 -1e-06 -4e-06
                      CHANNELS 3 Zrotation Yrotation Xrotation
                      JOINT RightHandMiddle3
                      {
                        OFFSET -4.348901 0.0 0.0
                        CHANNELS 3 Zrotation Yrotation Xrotation
                        JOINT RightHandMiddle4
                        {
                          OFFSET -3.00024 2e-06 -4e-06
                          CHANNELS 3 Zrotation Yrotation Xrotation
                          JOINT RightHandMiddleEnd
                          {
                            OFFSET -2.321477 -4e-06 -4e-06
                            CHANNELS 3 Zrotation Yrotation Xrotation
                          }
                        }
                      }
                    }
                  }
                  JOINT RightHandRing1
                  {
                    OFFSET -2.885654 0.293261 -0.119232
                    CHANNELS 3 Zrotation Yrotation Xrotation
                    JOINT RightHandRing2
                    {
                      OFFSET -6.032835 -1e-06 -4e-06
                      CHANNELS 3 Zrotation Yrotation Xrotation
                      JOINT RightHandRing3
                      {
                        OFFSET -4.33881 0.0 -4e-06
                        CHANNELS 3 Zrotation Yrotation Xrotation
                        JOINT RightHandRing4
                        {
                          OFFSET -2.654903 -4e-06 -4e-06
                          CHANNELS 3 Zrotation Yrotation Xrotation
                          JOINT RightHandRingEnd
                          {
                            OFFSET -1.935122 0.0 4e-06
                            CHANNELS 3 Zrotation Yrotation Xrotation
                          }
                        }
                      }
                    }
                  }
                  JOINT RightHandPinky1
                  {
                    OFFSET -2.866241 1.503904 -0.60527
                    CHANNELS 3 Zrotation Yrotation Xrotation
                    JOINT RightHandPinky2
                    {
                      OFFSET -5.553177 -2e-06 0.0
                      CHANNELS 3 Zrotation Yrotation Xrotation
                      JOINT RightHandPinky3
                      {
                        OFFSET -3.062664 -1e-06 -4e-06
                        CHANNELS 3 Zrotation Yrotation Xrotation
                        JOINT RightHandPinky4
                        {
                          OFFSET -1.546529 2e-06 4e-06
                          CHANNELS 3 Zrotation Yrotation Xrotation
                          JOINT RightHandPinkyEnd
                          {
                            OFFSET -1.952341 0.0 -4e-06
                            CHANNELS 3 Zrotation Yrotation Xrotation
                          }
                        }
                      }
                    }
                  }
                }
              }
            }
          }
        }
      }
    }
    JOINT LeftLeg
    {
      OFFSET -8.443107 2.567604 10.043214
      CHANNELS 3 Zrotation Yrotation Xrotation
      JOINT LeftShin
      {
        OFFSET 43.229198 1e-06 -1e-06
        CHANNELS 3 Zrotation Yrotation Xrotation
        JOINT LeftFoot
        {
          OFFSET 42.298611 1e-06 1e-06
          CHANNELS 3 Zrotation Yrotation Xrotation
          JOINT LeftToeBase
          {
            OFFSET 14.165858 1e-06 0.0
            CHANNELS 3 Zrotation Yrotation Xrotation
            JOINT LeftToeEnd
            {
              OFFSET 6.7141 -0.234461 0.0
              CHANNELS 3 Zrotation Yrotation Xrotation
            }
          }
        }
      }
    }
    JOINT RightLeg
    {
      OFFSET -8.303923 2.592729 -10.047278
      CHANNELS 3 Zrotation Yrotation Xrotation
      JOINT RightShin
      {
        OFFSET -43.369682 0.0 1e-06
        CHANNELS 3 Zrotation Yrotation Xrotation
        JOINT RightFoot
        {
          OFFSET -42.260784 4e-06 2e-06
          CHANNELS 3 Zrotation Yrotation Xrotation
          JOINT RightToeBase
          {
            OFFSET -14.222245 -2e-06 -1e-06
            CHANNELS 3 Zrotation Yrotation Xrotation
            JOINT RightToeEnd
            {
              OFFSET -6.660062 0.232574 -2e-06
              CHANNELS 3 Zrotation Yrotation Xrotation
            }
          }
        }
      }
    }
  }
}
MOTION
Frames: 4
Frame Time: 0.03333333333333333
0.0 0.0 0.0 0.0 -0.0 0.0 0.109147 99.674011 2.556646 89.264351 -2.596275 73.651268 -1.520143 0.980565 -0.337025 -11.503528 -0.671575 -2.77296 11.811048 4.952635 -3.025611 19.894506 -12.838794 3.204498 -2.610572 -0.252223 11.814563 -32.780552 6.918887 10.544803 0.006839 0.001839 0.005324 0.040773 0.015336 0.138581 0.001453 -0.068042 0.123665 0.03627 0.087733 0.135179 -43.349945 -74.332413 47.071289 20.94322 -1.730558 -78.926094 94.461525 -3.717613 -2.878033 10.790903 36.218079 22.092039 17.664446 -26.351549 52.417637 -19.47953 -14.422358 29.43235 -0.008938 -8.784706 0.003523 18.825974 -17.519936 5.526937 -0.607727 -1.790433 -3.889681 -4.80647 -11.046992 -2.945014 0.017277 -20.996202 0.00918 -5.008065 -25.017632 -4.014469 -0.006101 -0.000184 0.002353 -10.642717 -5.676361 -3.56948 10.592507 -17.937901 -3.106299 0.01004 -13.834229 0.003084 -0.507513 -31.183485 -3.995013 -11.710239 -59.624771 7.919143 -13.991408 -7.132226 -2.877701 13.782971 -8.409003 -3.23013 0.337457 -34.197552 0.808647 -0.966668 -17.746515 2.63762 0.00323 -0.008583 0.002768 -17.356323 -20.084713 -4.202315 21.783928 -1.661885 3.862758 0.01789 -6.339976 -0.011698 -1.708822 -22.590612 -6.156225 -0.007349 0.0 0.00377 82.702728 -78.393562 108.193642 25.817575 -62.618862 5.678598 28.343277 -0.382443 -0.193241 5.831104 7.321694 7.345775 22.205894 -20.399687 49.991604 -16.696503 -16.742374 28.481842 -0.001668 -12.689189 -0.003338 16.116302 -17.999432 2.600626 -0.102844 -1.5153 -4.277671 -5.039555 -5.614546 -2.959072 -0.002406 -11.032022 -0.001671 -6.10215 -15.904532 -3.848723 0.001017 0.003277 0.001163 -10.279375 -5.687027 -4.344278 11.030719 -11.308919 -2.371914 -1.378425 -14.246252 -6.327964 -0.624866 -26.968737 -3.832357 -5.157385 -49.999866 -3.48657 -13.704171 -7.365376 -3.726553 18.144045 -14.06074 -3.245143 -0.003487 -18.79184 0.004434 -0.43101 -8.454729 2.567899 0.004986 0.002305 0.002157 -15.922664 -20.120153 -5.484442 30.45035 -7.197449 1.739226 -0.008497 -8.168184 0.001135 -1.880589 -22.884991 -6.172871 0.003291 0.010141 -0.003562 -173.932556 -0.464003 -17.615749 6.056489 -0.04905 0.354523 -82.352921 -10.040612 -6.791787 -3.243623 1.600629 2.227021 -0.990341 0.004785 0.001914 -1.421893 -5.419107 8.964807 8.297408 -0.037012 0.459176 -79.504257 6.838082 -6.863111 -3.4217 0.662672 1.712261 -0.999884 -0.000827 -0.000648 
0.0 0.0 0.0 0.0 -0.0 0.0 -0.114091 99.826965 2.20072 89.268608 -2.890018 74.192604 -1.50982 0.894465 -0.444656 -11.409847 -0.61843 -2.589528 11.808406 4.690275 -2.95827 19.73827 -12.403763 3.103547 -2.563467 -0.292638 11.611189 -33.10183 6.841497 10.478332 -0.003409 -0.001578 -0.004842 0.023817 0.019519 0.157584 0.030497 -0.026512 0.161029 0.044819 0.063612 0.151866 -40.926113 -73.764572 44.503201 22.511675 -1.684352 -78.930168 92.572067 -3.467042 -2.209732 13.157196 36.941559 24.414839 17.644049 -26.400419 52.534672 -19.446192 -14.401264 29.442429 0.004855 -8.779467 0.00208 19.581146 -17.713463 4.850766 -0.607228 -1.800764 -3.888642 -4.818278 -11.053902 -2.931619 -0.003842 -20.99231 -0.003036 -5.057177 -25.021664 -4.030669 0.00873 -0.006712 -0.010391 -10.640567 -5.688428 -3.560155 10.556183 -17.914669 -3.098204 -0.005282 -13.826485 0.008035 -0.525148 -31.18899 -4.000764 -12.036705 -60.247448 8.048144 -13.988616 -7.150413 -2.882343 13.774341 -8.404524 -3.22367 0.308297 -34.246243 0.812781 -0.947383 -17.735155 2.623681 0.00434 -0.009111 0.001187 -17.370081 -20.117228 -4.187309 21.765575 -1.624396 3.873714 0.004995 -6.346932 -0.004352 -1.724579 -22.632133 -6.197638 0.000792 -0.002305 -0.008575 83.330879 -78.152359 107.016899 26.237589 -62.33791 5.715796 29.157364 -0.481371 -0.121796 6.151361 7.228828 6.94223 22.209461 -20.41115 49.97316 -16.668348 -16.731171 28.456436 0.002568 -12.684838 -0.001449 16.124409 -17.879114 2.572223 -0.101255 -1.526719 -4.285033 -5.037375 -5.599029 -2.948742 -0.004631 -11.015437 0.006457 -6.114742 -15.890789 -3.837726 6.7e-05 0.000286 -0.00068 -10.286847 -5.688581 -4.339898 11.033078 -11.282764 -2.368132 -1.389786 -14.22947 -6.316826 -0.636969 -26.920652 -3.820554 -5.076667 -50.041775 -3.400994 -13.714113 -7.371716 -3.728471 18.150017 -14.03197 -3.227113 -0.004995 -18.777191 0.004506 -0.434097 -8.459853 2.554069 -0.012013 0.004474 -0.002435 -15.923085 -20.093988 -5.479823 30.429167 -7.18354 1.751682 -0.017414 -8.165884 0.00515 -1.867942 -22.871998 -6.171963 0.011605 -0.0019 0.009638 -174.565643 -0.753657 -17.300032 6.166423 -0.051189 0.425292 -82.040764 -9.992382 -6.91904 -2.941646 1.61399 2.236084 -0.993451 0.002736 0.000866 -1.617215 -5.200161 8.505319 7.923633 -0.042951 0.455286 -78.893768 6.606578 -6.582201 -3.379389 0.635166 1.715563 -0.993423 0.000155 0.000554 
0.0 0.0 0.0 0.0 -0.0 0.0 -0.27504 99.962097 1.884452 89.268608 -3.245975 75.018051 -1.472112 0.76537 -0.545725 -11.377989 -0.574211 -2.472897 11.757786 4.55672 -3.143662 19.97267 -12.032769 2.944928 -2.612172 -0.264192 11.366261 -33.637123 6.443877 10.004725 0.000311 -1e-06 -0.001335 0.009386 0.014702 0.119601 0.026793 0.010896 0.119685 0.033541 0.013479 0.122858 -40.519615 -73.967659 43.539009 24.810337 -1.312457 -80.534546 85.860832 -3.405141 -2.105036 1.56278 39.823917 14.122133 17.618967 -26.314951 52.324875 -19.441523 -14.398544 29.389431 0.001993 -8.771138 0.002505 18.154604 -17.592302 5.229546 -0.610976 -1.798086 -3.888047 -4.80805 -11.04683 -2.932298 0.000772 -20.977331 0.022185 -5.026298 -25.039244 -4.027084 -0.007364 0.000744 -0.011369 -10.63791 -5.688783 -3.55651 10.566033 -17.916508 -3.091469 -0.00701 -13.813837 -0.006426 -0.526608 -31.176413 -4.005613 -11.173574 -59.205597 7.317901 -13.985707 -7.157239 -2.863744 13.774076 -8.390837 -3.210013 0.338023 -34.204548 0.785513 -0.966352 -17.743574 2.632135 0.003716 0.000298 -0.005727 -17.35144 -20.086805 -4.17034 21.746206 -1.631245 3.855195 0.000686 -6.32725 -0.002583 -1.714895 -22.540735 -6.170384 0.006376 0.004911 -0.009019 85.240128 -78.587837 105.383179 24.990377 -61.857281 8.112244 30.94478 -0.565872 -0.12821 6.693008 6.693267 6.318957 22.158566 -20.346701 49.92255 -16.712236 -16.719181 28.483198 -0.009208 -12.676725 0.003278 16.027912 -17.70393 2.596767 -0.094433 -1.529498 -4.27865 -5.035938 -5.601396 -2.954403 0.010097 -11.022272 -0.010495 -6.09337 -15.89075 -3.842661 0.000376 0.0 -0.001702 -10.268454 -5.683311 -4.338903 11.024512 -11.298611 -2.378123 -1.375998 -14.231782 -6.324435 -0.60052 -26.916258 -3.834131 -4.826297 -49.673386 -3.489723 -13.683254 -7.370886 -3.721311 18.122774 -14.050492 -3.25316 0.020762 -18.777523 -0.010425 -0.415877 -8.475386 2.541028 -0.00896 -0.000516 6e-05 -15.886308 -20.09211 -5.486602 30.374691 -7.207038 1.723088 0.005647 -8.164241 -0.004419 -1.846149 -22.860048 -6.152366 0.008106 0.01696 0.010909 -175.162857 -1.074513 -17.058746 6.026443 -0.085893 0.398592 -81.511185 -9.494947 -6.760928 -3.079129 1.685149 2.262301 -0.997241 -0.001201 -0.000849 -1.635929 -4.985227 8.035883 7.158138 0.014248 0.360959 -78.076759 6.107715 -6.018808 -3.440561 0.607716 1.715242 -1.000171 2.6e-05 0.000276 
0.0 0.0 0.0 0.0 -0.0 0.0 -0.420459 99.975319 1.668776 89.307182 -3.465543 75.83812 -1.438007 0.584001 -0.535947 -11.411452 -0.568377 -2.423525 11.782828 4.38684 -3.458384 20.248453 -11.526712 2.901472 -2.654456 -0.250969 10.916577 -34.00684 6.252543 9.758245 0.0 -0.0 0.0 0.004317 0.001402 0.0386 0.000369 0.00214 0.021031 0.021882 -0.002641 0.056324 -39.304012 -74.008362 41.67947 27.113008 0.153467 -82.455048 78.458107 -2.369849 -2.245134 -21.101912 42.11639 -7.134301 17.616442 -26.359093 52.548492 -19.473255 -14.410685 29.456348 -0.000147 -8.799332 -0.00303 17.132908 -16.696888 5.719713 -0.623713 -1.796754 -3.902363 -4.820775 -11.063501 -2.919363 -0.027201 -20.994684 -0.006833 -5.040936 -25.063681 -4.056565 0.007417 0.004609 -0.008063 -10.660539 -5.698316 -3.559891 10.560264 -17.920345 -3.112107 -0.006425 -13.816637 -0.001934 -0.518453 -31.206917 -4.083167 -10.258139 -58.219933 6.430298 -14.016397 -7.168671 -2.860481 13.77059 -8.388929 -3.232987 0.301997 -34.244392 0.768292 -0.971638 -17.754873 2.598319 0.001964 0.006916 -0.014866 -17.400368 -20.133785 -4.189507 21.782597 -1.617378 3.852226 -0.016339 -6.340641 -0.003957 -1.747874 -22.598244 -6.168121 0.000823 -0.003835 -0.00767 83.966553 -78.709244 106.223564 23.868826 -60.715698 10.440927 31.833433 -0.744047 -0.032972 6.717435 5.978637 6.395278 22.239946 -20.438774 50.051167 -16.694105 -16.767054 28.488276 0.002019 -12.71127 -0.000423 16.041397 -17.791449 2.568101 -0.0933 -1.506325 -4.278107 -5.051275 -5.600616 -2.9537 -0.005333 -11.020202 0.001393 -6.116629 -15.888084 -3.83609 -0.001285 -0.003656 -0.00423 -10.288524 -5.6748 -4.339422 11.034657 -11.287727 -2.369936 -1.399431 -14.229591 -6.322208 -0.638871 -26.925943 -3.817961 -4.500329 -49.005684 -3.981313 -13.713828 -7.355593 -3.722628 18.143337 -14.046286 -3.228292 0.003842 -18.7913 0.016702 -0.435523 -8.451118 2.557285 0.0 -0.005758 -0.00315 -15.941889 -20.089361 -5.481168 30.447321 -7.18575 1.749345 -0.005124 -8.157604 0.007365 -1.870737 -22.820526 -6.15724 0.00724 -0.006806 -0.0 -175.605606 -1.320892 -16.410915 6.022723 -0.055318 0.256522 -81.610077 -9.010922 -6.898802 -3.387208 1.723463 2.275803 -1.000422 -0.003121 -0.000606 -1.608287 -4.910242 7.645102 6.598304 0.1218 0.305806 -78.034889 5.846344 -5.888971 -3.329513 0.490986 1.681015 -0.998528 -0.000867 -0.000324 
